{
  "title" : "",
  "description" : "",
  "author" : "",
  "targetLoudness" : -18.0,
  "shouldApplyLoudnessNormalization" : true,
  "videoFormatFrameRate" : 30,
  "audioFormatSampleRate" : 44100,
  "width" : 1920.0,
  "height" : 936.0,
  "version" : "3.0",
  "editRate" : 30,
  "authoringClientName" :  {
    "name" : "Camtasia",
    "platform" : "Windows",
    "version" : "19.0"
  },
  "sourceBin" : [
    {
      "id" : 1,
      "src" : "C:\\Users\\Hasan\\Documents\\Camtasia\\Rec 11-12-20.trec",
      "rect" : [0, 0, 1920, 936],
      "lastMod" : "20201112T144238",
      "sourceTracks" : [
        {
          "range" : [0, 523],
          "type" : 0,
          "editRate" : 30,
          "trackRect" : [0, 0, 1920, 936],
          "sampleRate" : 29,
          "bitDepth" : 0,
          "numChannels" : 0,
          "integratedLUFS" : 100.0,
          "peakLevel" : -1.0,
          "metaData" : "2b7b6a00-7a1f-11e2-83d0-0017f200be7f;2b7b6aef-7a1f-11e2-83d0-0017f200be7f;2b7b6af0-7a1f-11e2-83d0-0017f200be7f;2b7b6af1-7a1f-11e2-83d0-0017f200be7f;2b7b6af2-7a1f-11e2-83d0-0017f200be7f;2b7b6af3-7a1f-11e2-83d0-0017f200be7f;2b7b6af5-7a1f-11e2-83d0-0017f200be7f;2b7b6af6-7a1f-11e2-83d0-0017f200be7f;2b7b6af7-7a1f-11e2-83d0-0017f200be7f;2b7b6af8-7a1f-11e2-83d0-0017f200be7f;2b7b6af9-7a1f-11e2-83d0-0017f200be7f;2b7b6afa-7a1f-11e2-83d0-0017f200be7f;"
        }
      ]
    },
    {
      "id" : 2,
      "src" : "C:\\Users\\Hasan\\Documents\\Camtasia\\Rec 11-12-20_001.trec",
      "rect" : [0, 0, 1920, 936],
      "lastMod" : "20201112T145112",
      "sourceTracks" : [
        {
          "range" : [0, 394],
          "type" : 0,
          "editRate" : 30,
          "trackRect" : [0, 0, 1920, 936],
          "sampleRate" : 29,
          "bitDepth" : 0,
          "numChannels" : 0,
          "integratedLUFS" : 100.0,
          "peakLevel" : -1.0,
          "metaData" : "2b7b6a00-7a1f-11e2-83d0-0017f200be7f;2b7b6aef-7a1f-11e2-83d0-0017f200be7f;2b7b6af0-7a1f-11e2-83d0-0017f200be7f;2b7b6af1-7a1f-11e2-83d0-0017f200be7f;2b7b6af2-7a1f-11e2-83d0-0017f200be7f;2b7b6af3-7a1f-11e2-83d0-0017f200be7f;2b7b6af5-7a1f-11e2-83d0-0017f200be7f;2b7b6af6-7a1f-11e2-83d0-0017f200be7f;2b7b6af7-7a1f-11e2-83d0-0017f200be7f;2b7b6af8-7a1f-11e2-83d0-0017f200be7f;2b7b6af9-7a1f-11e2-83d0-0017f200be7f;2b7b6afa-7a1f-11e2-83d0-0017f200be7f;"
        }
      ]
    },
    {
      "id" : 3,
      "src" : "C:\\Users\\Hasan\\Documents\\Camtasia\\Rec 11-12-20_002.trec",
      "rect" : [0, 0, 1920, 936],
      "lastMod" : "20201112T145331",
      "sourceTracks" : [
        {
          "range" : [0, 693],
          "type" : 0,
          "editRate" : 30,
          "trackRect" : [0, 0, 1920, 936],
          "sampleRate" : 29,
          "bitDepth" : 0,
          "numChannels" : 0,
          "integratedLUFS" : 100.0,
          "peakLevel" : -1.0,
          "metaData" : "2b7b6a00-7a1f-11e2-83d0-0017f200be7f;2b7b6aef-7a1f-11e2-83d0-0017f200be7f;2b7b6af0-7a1f-11e2-83d0-0017f200be7f;2b7b6af1-7a1f-11e2-83d0-0017f200be7f;2b7b6af2-7a1f-11e2-83d0-0017f200be7f;2b7b6af3-7a1f-11e2-83d0-0017f200be7f;2b7b6af5-7a1f-11e2-83d0-0017f200be7f;2b7b6af6-7a1f-11e2-83d0-0017f200be7f;2b7b6af7-7a1f-11e2-83d0-0017f200be7f;2b7b6af8-7a1f-11e2-83d0-0017f200be7f;2b7b6af9-7a1f-11e2-83d0-0017f200be7f;2b7b6afa-7a1f-11e2-83d0-0017f200be7f;"
        }
      ]
    },
    {
      "id" : 4,
      "src" : "C:\\Users\\Hasan\\Documents\\Camtasia\\Rec 11-12-20_003.trec",
      "rect" : [0, 0, 1920, 936],
      "lastMod" : "20201112T145859",
      "sourceTracks" : [
        {
          "range" : [0, 3614],
          "type" : 0,
          "editRate" : 30,
          "trackRect" : [0, 0, 1920, 936],
          "sampleRate" : 29,
          "bitDepth" : 0,
          "numChannels" : 0,
          "integratedLUFS" : 100.0,
          "peakLevel" : -1.0,
          "metaData" : "2b7b6a00-7a1f-11e2-83d0-0017f200be7f;2b7b6aef-7a1f-11e2-83d0-0017f200be7f;2b7b6af0-7a1f-11e2-83d0-0017f200be7f;2b7b6af1-7a1f-11e2-83d0-0017f200be7f;2b7b6af2-7a1f-11e2-83d0-0017f200be7f;2b7b6af3-7a1f-11e2-83d0-0017f200be7f;2b7b6af5-7a1f-11e2-83d0-0017f200be7f;2b7b6af6-7a1f-11e2-83d0-0017f200be7f;2b7b6af7-7a1f-11e2-83d0-0017f200be7f;2b7b6af8-7a1f-11e2-83d0-0017f200be7f;2b7b6af9-7a1f-11e2-83d0-0017f200be7f;2b7b6afa-7a1f-11e2-83d0-0017f200be7f;"
        }
      ]
    },
    {
      "id" : 5,
      "src" : "C:\\Users\\Hasan\\Documents\\Camtasia\\Rec 11-12-20_004.trec",
      "rect" : [0, 0, 1920, 936],
      "lastMod" : "20201112T150107",
      "sourceTracks" : [
        {
          "range" : [0, 1029],
          "type" : 0,
          "editRate" : 30,
          "trackRect" : [0, 0, 1920, 936],
          "sampleRate" : 29,
          "bitDepth" : 0,
          "numChannels" : 0,
          "integratedLUFS" : 100.0,
          "peakLevel" : -1.0,
          "metaData" : "2b7b6a00-7a1f-11e2-83d0-0017f200be7f;2b7b6aef-7a1f-11e2-83d0-0017f200be7f;2b7b6af0-7a1f-11e2-83d0-0017f200be7f;2b7b6af1-7a1f-11e2-83d0-0017f200be7f;2b7b6af2-7a1f-11e2-83d0-0017f200be7f;2b7b6af3-7a1f-11e2-83d0-0017f200be7f;2b7b6af5-7a1f-11e2-83d0-0017f200be7f;2b7b6af6-7a1f-11e2-83d0-0017f200be7f;2b7b6af7-7a1f-11e2-83d0-0017f200be7f;2b7b6af8-7a1f-11e2-83d0-0017f200be7f;2b7b6af9-7a1f-11e2-83d0-0017f200be7f;2b7b6afa-7a1f-11e2-83d0-0017f200be7f;"
        }
      ]
    },
    {
      "id" : 6,
      "src" : "C:\\Users\\Hasan\\Documents\\Camtasia\\Rec 11-12-20_005.trec",
      "rect" : [0, 0, 1920, 936],
      "lastMod" : "20201112T150437",
      "sourceTracks" : [
        {
          "range" : [0, 793],
          "type" : 0,
          "editRate" : 30,
          "trackRect" : [0, 0, 1920, 936],
          "sampleRate" : 29,
          "bitDepth" : 0,
          "numChannels" : 0,
          "integratedLUFS" : 100.0,
          "peakLevel" : -1.0,
          "metaData" : "2b7b6a00-7a1f-11e2-83d0-0017f200be7f;2b7b6aef-7a1f-11e2-83d0-0017f200be7f;2b7b6af0-7a1f-11e2-83d0-0017f200be7f;2b7b6af1-7a1f-11e2-83d0-0017f200be7f;2b7b6af2-7a1f-11e2-83d0-0017f200be7f;2b7b6af3-7a1f-11e2-83d0-0017f200be7f;2b7b6af5-7a1f-11e2-83d0-0017f200be7f;2b7b6af6-7a1f-11e2-83d0-0017f200be7f;2b7b6af7-7a1f-11e2-83d0-0017f200be7f;2b7b6af8-7a1f-11e2-83d0-0017f200be7f;2b7b6af9-7a1f-11e2-83d0-0017f200be7f;2b7b6afa-7a1f-11e2-83d0-0017f200be7f;"
        }
      ]
    },
    {
      "id" : 7,
      "src" : "C:\\Users\\Hasan\\Documents\\Camtasia\\Rec 11-12-20_006.trec",
      "rect" : [0, 0, 1920, 936],
      "lastMod" : "20201112T150658",
      "sourceTracks" : [
        {
          "range" : [0, 2130],
          "type" : 0,
          "editRate" : 30,
          "trackRect" : [0, 0, 1920, 936],
          "sampleRate" : 29,
          "bitDepth" : 0,
          "numChannels" : 0,
          "integratedLUFS" : 100.0,
          "peakLevel" : -1.0,
          "metaData" : "2b7b6a00-7a1f-11e2-83d0-0017f200be7f;2b7b6aef-7a1f-11e2-83d0-0017f200be7f;2b7b6af0-7a1f-11e2-83d0-0017f200be7f;2b7b6af1-7a1f-11e2-83d0-0017f200be7f;2b7b6af2-7a1f-11e2-83d0-0017f200be7f;2b7b6af3-7a1f-11e2-83d0-0017f200be7f;2b7b6af5-7a1f-11e2-83d0-0017f200be7f;2b7b6af6-7a1f-11e2-83d0-0017f200be7f;2b7b6af7-7a1f-11e2-83d0-0017f200be7f;2b7b6af8-7a1f-11e2-83d0-0017f200be7f;2b7b6af9-7a1f-11e2-83d0-0017f200be7f;2b7b6afa-7a1f-11e2-83d0-0017f200be7f;"
        }
      ]
    }
  ],
  "timeline" : {
    "id" : 8,
    "sceneTrack" : {
      "scenes" : [
        {
          "duration" : 342.066666666667,
          "title" : "",
          "type" : "",
          "csml" : {
            "tracks" : [
              {
                "trackIndex" : 0,
                "medias" : [
                  {
                    "id" : 9,
                    "_type" : "ScreenVMFile",
                    "src" : 1,
                    "trackNumber" : 0,
                    "attributes" : {
                      "ident" : "Rec 11-12-20"
                    },
                    "parameters" : {
                      "cursorScale" : {
                        "type" : "double",
                        "defaultValue" : 1.0,
                        "interp" : "linr"
                      },
                      "cursorOpacity" : {
                        "type" : "double",
                        "defaultValue" : 1.0,
                        "interp" : "linr"
                      }
                    },
                    "effects" : [

                    ],
                    "start" : 94,
                    "duration" : 523,
                    "mediaStart" : 0,
                    "mediaDuration" : 523,
                    "scalar" : 1,
                    "metadata" : {
                      "AutoAppliedSmartFocus" : "False",
                      "clipSpeedAttribute" : false
                    },
                    "animationTracks" : {

                    }
                  },
                  {
                    "id" : 10,
                    "_type" : "ScreenVMFile",
                    "src" : 2,
                    "trackNumber" : 0,
                    "attributes" : {
                      "ident" : "Rec 11-12-20_001"
                    },
                    "parameters" : {
                      "cursorScale" : {
                        "type" : "double",
                        "defaultValue" : 1.0,
                        "interp" : "linr"
                      },
                      "cursorOpacity" : {
                        "type" : "double",
                        "defaultValue" : 1.0,
                        "interp" : "linr"
                      }
                    },
                    "effects" : [

                    ],
                    "start" : 741,
                    "duration" : 394,
                    "mediaStart" : 0,
                    "mediaDuration" : 394,
                    "scalar" : 1,
                    "metadata" : {
                      "AutoAppliedSmartFocus" : "False",
                      "clipSpeedAttribute" : false
                    },
                    "animationTracks" : {

                    }
                  },
                  {
                    "id" : 11,
                    "_type" : "ScreenVMFile",
                    "src" : 3,
                    "trackNumber" : 0,
                    "attributes" : {
                      "ident" : "Rec 11-12-20_002"
                    },
                    "parameters" : {
                      "cursorScale" : {
                        "type" : "double",
                        "defaultValue" : 1.0,
                        "interp" : "linr"
                      },
                      "cursorOpacity" : {
                        "type" : "double",
                        "defaultValue" : 1.0,
                        "interp" : "linr"
                      }
                    },
                    "effects" : [

                    ],
                    "start" : 1259,
                    "duration" : 693,
                    "mediaStart" : 0,
                    "mediaDuration" : 693,
                    "scalar" : 1,
                    "metadata" : {
                      "AutoAppliedSmartFocus" : "False",
                      "clipSpeedAttribute" : false
                    },
                    "animationTracks" : {

                    }
                  },
                  {
                    "id" : 12,
                    "_type" : "ScreenVMFile",
                    "src" : 4,
                    "trackNumber" : 0,
                    "attributes" : {
                      "ident" : "Rec 11-12-20_003"
                    },
                    "parameters" : {
                      "cursorScale" : {
                        "type" : "double",
                        "defaultValue" : 1.0,
                        "interp" : "linr"
                      },
                      "cursorOpacity" : {
                        "type" : "double",
                        "defaultValue" : 1.0,
                        "interp" : "linr"
                      }
                    },
                    "effects" : [

                    ],
                    "start" : 2076,
                    "duration" : 1878,
                    "mediaStart" : 0,
                    "mediaDuration" : 1878,
                    "scalar" : 1,
                    "metadata" : {
                      "AutoAppliedSmartFocus" : "False",
                      "clipSpeedAttribute" : false
                    },
                    "animationTracks" : {

                    }
                  },
                  {
                    "id" : 13,
                    "_type" : "ScreenVMFile",
                    "src" : 4,
                    "trackNumber" : 0,
                    "attributes" : {
                      "ident" : "Rec 11-12-20_003"
                    },
                    "parameters" : {
                      "cursorScale" : {
                        "type" : "double",
                        "defaultValue" : 1.0,
                        "interp" : "linr"
                      },
                      "cursorOpacity" : {
                        "type" : "double",
                        "defaultValue" : 1.0,
                        "interp" : "linr"
                      }
                    },
                    "effects" : [

                    ],
                    "start" : 4078,
                    "duration" : 1736,
                    "mediaStart" : 1878,
                    "mediaDuration" : 1736,
                    "scalar" : 1,
                    "metadata" : {
                      "AutoAppliedSmartFocus" : "False",
                      "clipSpeedAttribute" : false
                    },
                    "animationTracks" : {

                    }
                  },
                  {
                    "id" : 14,
                    "_type" : "ScreenVMFile",
                    "src" : 5,
                    "trackNumber" : 0,
                    "attributes" : {
                      "ident" : "Rec 11-12-20_004"
                    },
                    "parameters" : {
                      "cursorScale" : {
                        "type" : "double",
                        "defaultValue" : 1.0,
                        "interp" : "linr"
                      },
                      "cursorOpacity" : {
                        "type" : "double",
                        "defaultValue" : 1.0,
                        "interp" : "linr"
                      }
                    },
                    "effects" : [

                    ],
                    "start" : 5938,
                    "duration" : 1029,
                    "mediaStart" : 0,
                    "mediaDuration" : 1029,
                    "scalar" : 1,
                    "metadata" : {
                      "AutoAppliedSmartFocus" : "False",
                      "clipSpeedAttribute" : false
                    },
                    "animationTracks" : {

                    }
                  },
                  {
                    "id" : 15,
                    "_type" : "ScreenVMFile",
                    "src" : 6,
                    "trackNumber" : 0,
                    "attributes" : {
                      "ident" : "Rec 11-12-20_005"
                    },
                    "parameters" : {
                      "cursorScale" : {
                        "type" : "double",
                        "defaultValue" : 1.0,
                        "interp" : "linr"
                      },
                      "cursorOpacity" : {
                        "type" : "double",
                        "defaultValue" : 1.0,
                        "interp" : "linr"
                      }
                    },
                    "effects" : [

                    ],
                    "start" : 7091,
                    "duration" : 793,
                    "mediaStart" : 0,
                    "mediaDuration" : 793,
                    "scalar" : 1,
                    "metadata" : {
                      "AutoAppliedSmartFocus" : "False",
                      "clipSpeedAttribute" : false
                    },
                    "animationTracks" : {

                    }
                  },
                  {
                    "id" : 16,
                    "_type" : "ScreenVMFile",
                    "src" : 7,
                    "trackNumber" : 0,
                    "attributes" : {
                      "ident" : "Rec 11-12-20_006"
                    },
                    "parameters" : {
                      "cursorScale" : {
                        "type" : "double",
                        "defaultValue" : 1.0,
                        "interp" : "linr"
                      },
                      "cursorOpacity" : {
                        "type" : "double",
                        "defaultValue" : 1.0,
                        "interp" : "linr"
                      }
                    },
                    "effects" : [

                    ],
                    "start" : 8008,
                    "duration" : 2130,
                    "mediaStart" : 0,
                    "mediaDuration" : 2130,
                    "scalar" : 1,
                    "metadata" : {
                      "AutoAppliedSmartFocus" : "False",
                      "clipSpeedAttribute" : false
                    },
                    "animationTracks" : {

                    }
                  }
                ]
              },
              {
                "trackIndex" : 1,
                "medias" : [
                  {
                    "id" : 17,
                    "_type" : "Group",
                    "parameters" : {
                      "translation0" : -1.81898940354586e-12,
                      "translation1" : 1.51203494169749e-11,
                      "volume" : 1.0
                    },
                    "tracks" : [
                      {
                        "trackIndex" : 0,
                        "medias" : [
                          {
                            "id" : 18,
                            "_type" : "Callout",
                            "def" : {
                              "kind" : "remix",
                              "shape" : "shape-rectangle",
                              "style" : "basic",
                              "fill-color-blue" : 1.0,
                              "fill-color-green" : 1.0,
                              "fill-color-opacity" : 1.0,
                              "fill-color-red" : 1.0,
                              "height" : 935.999999999706,
                              "stroke-color-blue" : 1.0,
                              "stroke-color-green" : 1.0,
                              "stroke-color-opacity" : 1.0,
                              "stroke-color-red" : 1.0,
                              "stroke-width" : 0.0,
                              "width" : 1919.99999999952,
                              "fill-style" : "solid",
                              "stroke-style" : "solid"
                            },
                            "attributes" : {
                              "autoRotateText" : true
                            },
                            "effects" : [

                            ],
                            "start" : 1,
                            "duration" : 123,
                            "mediaStart" : 0,
                            "mediaDuration" : 123,
                            "scalar" : 1,
                            "metadata" : {
                              "clipSpeedAttribute" : false
                            },
                            "animationTracks" : {

                            }
                          }
                        ],
                          "ident" : "",
                          "audioMuted" : false,
                          "videoHidden" : false,
                          "magnetic" : false,
                          "metadata" : {
                            "IsLocked" : "False",
                            "WinTrackHeight" : "0"
                          }
                      },
                      {
                        "trackIndex" : 1,
                        "medias" : [
                          {
                            "id" : 19,
                            "_type" : "Callout",
                            "def" : {
                              "kind" : "remix",
                              "shape" : "text",
                              "style" : "basic",
                              "height" : 450.000000000034,
                              "line-spacing" : 0.0,
                              "width" : 1271.42857142822,
                              "word-wrap" : 1.0,
                              "horizontal-alignment" : "center",
                              "resize-behavior" : "resizeText",
                              "text" : "Strategy Management",
                              "vertical-alignment" : "center",
                              "font" : {
                                "color-blue" : 1.0,
                                "color-green" : 1.0,
                                "color-red" : 1.0,
                                "size" : 96.0,
                                "tracking" : 0.0,
                                "name" : "Montserrat",
                                "weight" : "Regular"
                              },
                              "textAttributes" : {
                                "type" : "textAttributeList",
                                "keyframes" : [
                                  {
                                    "endTime" : 0,
                                    "time" : 0,
                                    "value" : [{"name":"strikethrough","rangeEnd":19,"rangeStart":0,"value":0,"valueType":"int"},{"name":"fontItalic","rangeEnd":19,"rangeStart":0,"value":0,"valueType":"int"},{"name":"fgColor","rangeEnd":19,"rangeStart":0,"value":"(0,174,141,255)","valueType":"color"},{"name":"fontSize","rangeEnd":19,"rangeStart":0,"value":100,"valueType":"double"},{"name":"fontName","rangeEnd":19,"rangeStart":0,"value":"Montserrat","valueType":"string"},{"name":"underline","rangeEnd":19,"rangeStart":0,"value":0,"valueType":"int"},{"name":"fontWeight","rangeEnd":19,"rangeStart":0,"value":400,"valueType":"int"},{"name":"kerning","rangeEnd":19,"rangeStart":0,"value":0,"valueType":"double"}],
                                    "duration" : 0
                                  }
                                ]
                              }
                            },
                            "attributes" : {
                              "autoRotateText" : true
                            },
                            "parameters" : {
                              "translation0" : 0.285714285962825,
                              "translation1" : 6.91215973347425e-11
                            },
                            "effects" : [

                            ],
                            "start" : 0,
                            "duration" : 124,
                            "mediaStart" : 0,
                            "mediaDuration" : 124,
                            "scalar" : 1,
                            "metadata" : {
                              "clipSpeedAttribute" : false,
                              "default-HAlign" : "center",
                              "default-LineSpace" : 0.0,
                              "default-VAlign" : "center",
                              "default-text-attributes" : "[{\"name\":\"fontName\",\"rangeEnd\":38,\"rangeStart\":0,\"value\":\"Montserrat\",\"valueType\":\"string\"},{\"name\":\"kerning\",\"rangeEnd\":38,\"rangeStart\":0,\"value\":0,\"valueType\":\"double\"},{\"name\":\"fontWeight\",\"rangeEnd\":38,\"rangeStart\":0,\"value\":400,\"valueType\":\"int\"},{\"name\":\"fontItalic\",\"rangeEnd\":38,\"rangeStart\":0,\"value\":0,\"valueType\":\"int\"},{\"name\":\"fontSize\",\"rangeEnd\":38,\"rangeStart\":0,\"value\":100,\"valueType\":\"double\"},{\"name\":\"strikethrough\",\"rangeEnd\":38,\"rangeStart\":0,\"value\":0,\"valueType\":\"int\"},{\"name\":\"fgColor\",\"rangeEnd\":38,\"rangeStart\":0,\"value\":\"(0,174,141,255)\",\"valueType\":\"color\"},{\"name\":\"underline\",\"rangeEnd\":38,\"rangeStart\":0,\"value\":0,\"valueType\":\"int\"}]",
                              "default-translation0" : -177.714285714172,
                              "default-translation1" : 5.00000000000001
                            },
                            "animationTracks" : {

                            }
                          }
                        ],
                          "ident" : "",
                          "audioMuted" : false,
                          "videoHidden" : false,
                          "magnetic" : false,
                          "metadata" : {
                            "IsLocked" : "False",
                            "WinTrackHeight" : "5.60588108649785e-313"
                          }
                      }
                    ],
                    "attributes" : {
                      "ident" : "Group 1",
                      "gain" : 1.0,
                      "mixToMono" : false
                    },
                    "effects" : [

                    ],
                    "start" : 0,
                    "duration" : 124,
                    "mediaStart" : 0.0,
                    "mediaDuration" : 124.0,
                    "scalar" : 1,
                    "metadata" : {
                      "IsGroupExpanded" : "False"
                    },
                    "animationTracks" : {

                    }
                  },
                  {
                    "id" : 20,
                    "_type" : "Group",
                    "parameters" : {
                      "translation0" : {
                        "type" : "double",
                        "defaultValue" : -1.81898940354586e-12,
                        "interp" : "eioe"
                      },
                      "translation1" : {
                        "type" : "double",
                        "defaultValue" : 1.51203494169749e-11,
                        "interp" : "eioe"
                      },
                      "volume" : 1.0
                    },
                    "tracks" : [
                      {
                        "trackIndex" : 0,
                        "medias" : [
                          {
                            "id" : 21,
                            "_type" : "Callout",
                            "def" : {
                              "kind" : "remix",
                              "shape" : "shape-rectangle",
                              "style" : "basic",
                              "fill-color-blue" : {
                                "type" : "double",
                                "defaultValue" : 1.0,
                                "interp" : "linr"
                              },
                              "fill-color-green" : {
                                "type" : "double",
                                "defaultValue" : 1.0,
                                "interp" : "linr"
                              },
                              "fill-color-opacity" : {
                                "type" : "double",
                                "defaultValue" : 1.0,
                                "interp" : "linr"
                              },
                              "fill-color-red" : {
                                "type" : "double",
                                "defaultValue" : 1.0,
                                "interp" : "linr"
                              },
                              "height" : {
                                "type" : "double",
                                "defaultValue" : 935.999999999706,
                                "interp" : "linr"
                              },
                              "stroke-color-blue" : {
                                "type" : "double",
                                "defaultValue" : 1.0,
                                "interp" : "linr"
                              },
                              "stroke-color-green" : {
                                "type" : "double",
                                "defaultValue" : 1.0,
                                "interp" : "linr"
                              },
                              "stroke-color-opacity" : {
                                "type" : "double",
                                "defaultValue" : 1.0,
                                "interp" : "linr"
                              },
                              "stroke-color-red" : {
                                "type" : "double",
                                "defaultValue" : 1.0,
                                "interp" : "linr"
                              },
                              "stroke-width" : {
                                "type" : "double",
                                "defaultValue" : 0.0,
                                "interp" : "linr"
                              },
                              "width" : {
                                "type" : "double",
                                "defaultValue" : 1919.99999999952,
                                "interp" : "linr"
                              },
                              "fill-style" : "solid",
                              "stroke-style" : "solid"
                            },
                            "attributes" : {
                              "autoRotateText" : true
                            },
                            "effects" : [

                            ],
                            "start" : 1,
                            "duration" : 123,
                            "mediaStart" : 0,
                            "mediaDuration" : 123,
                            "scalar" : 1,
                            "metadata" : {
                              "clipSpeedAttribute" : false
                            },
                            "animationTracks" : {

                            }
                          }
                        ],
                          "ident" : "",
                          "audioMuted" : false,
                          "videoHidden" : false,
                          "magnetic" : false,
                          "metadata" : {
                            "IsLocked" : "False",
                            "WinTrackHeight" : "0"
                          }
                      },
                      {
                        "trackIndex" : 1,
                        "medias" : [
                          {
                            "id" : 22,
                            "_type" : "Callout",
                            "def" : {
                              "kind" : "remix",
                              "shape" : "text",
                              "style" : "basic",
                              "height" : {
                                "type" : "double",
                                "defaultValue" : 450.000000000034,
                                "interp" : "linr"
                              },
                              "line-spacing" : {
                                "type" : "double",
                                "defaultValue" : 0.0,
                                "interp" : "linr"
                              },
                              "width" : {
                                "type" : "double",
                                "defaultValue" : 1271.42857142822,
                                "interp" : "linr"
                              },
                              "word-wrap" : {
                                "type" : "double",
                                "defaultValue" : 1.0,
                                "interp" : "linr"
                              },
                              "horizontal-alignment" : "center",
                              "resize-behavior" : "resizeText",
                              "text" : "Dashboard",
                              "vertical-alignment" : "center",
                              "font" : {
                                "color-blue" : {
                                  "type" : "double",
                                  "defaultValue" : 1.0,
                                  "interp" : "linr"
                                },
                                "color-green" : {
                                  "type" : "double",
                                  "defaultValue" : 1.0,
                                  "interp" : "linr"
                                },
                                "color-red" : {
                                  "type" : "double",
                                  "defaultValue" : 1.0,
                                  "interp" : "linr"
                                },
                                "size" : {
                                  "type" : "double",
                                  "defaultValue" : 96.0,
                                  "interp" : "linr"
                                },
                                "tracking" : {
                                  "type" : "double",
                                  "defaultValue" : 0.0,
                                  "interp" : "linr"
                                },
                                "name" : "Montserrat",
                                "weight" : "Regular"
                              },
                              "textAttributes" : {
                                "type" : "textAttributeList",
                                "keyframes" : [
                                  {
                                    "endTime" : 0,
                                    "time" : 0,
                                    "value" : [{"name":"fgColor","rangeEnd":9,"rangeStart":0,"value":"(0,174,141,255)","valueType":"color"},{"name":"kerning","rangeEnd":9,"rangeStart":0,"value":0,"valueType":"double"},{"name":"fontItalic","rangeEnd":9,"rangeStart":0,"value":0,"valueType":"int"},{"name":"underline","rangeEnd":9,"rangeStart":0,"value":0,"valueType":"int"},{"name":"fontWeight","rangeEnd":9,"rangeStart":0,"value":400,"valueType":"int"},{"name":"fontName","rangeEnd":9,"rangeStart":0,"value":"Montserrat","valueType":"string"},{"name":"fontSize","rangeEnd":9,"rangeStart":0,"value":100,"valueType":"double"},{"name":"strikethrough","rangeEnd":9,"rangeStart":0,"value":0,"valueType":"int"}],
                                    "duration" : 0
                                  }
                                ]
                              }
                            },
                            "attributes" : {
                              "autoRotateText" : true
                            },
                            "parameters" : {
                              "translation0" : {
                                "type" : "double",
                                "defaultValue" : 0.285714285962825,
                                "interp" : "eioe"
                              },
                              "translation1" : {
                                "type" : "double",
                                "defaultValue" : 6.91215973347425e-11,
                                "interp" : "eioe"
                              }
                            },
                            "effects" : [

                            ],
                            "start" : 0,
                            "duration" : 124,
                            "mediaStart" : 0,
                            "mediaDuration" : 124,
                            "scalar" : 1,
                            "metadata" : {
                              "clipSpeedAttribute" : false,
                              "default-HAlign" : "center",
                              "default-LineSpace" : 0.0,
                              "default-VAlign" : "center",
                              "default-translation0" : -177.714285714172,
                              "default-translation1" : 5.00000000000001
                            },
                            "animationTracks" : {

                            }
                          }
                        ],
                          "ident" : "",
                          "audioMuted" : false,
                          "videoHidden" : false,
                          "magnetic" : false,
                          "metadata" : {
                            "IsLocked" : "False",
                            "WinTrackHeight" : "5.60588108649785e-313"
                          }
                      }
                    ],
                    "attributes" : {
                      "ident" : "Group 1",
                      "gain" : 1.0,
                      "mixToMono" : false
                    },
                    "effects" : [

                    ],
                    "start" : 617,
                    "duration" : 124,
                    "mediaStart" : 0.0,
                    "mediaDuration" : 124.0,
                    "scalar" : 1,
                    "metadata" : {
                      "IsGroupExpanded" : "False"
                    },
                    "animationTracks" : {

                    }
                  },
                  {
                    "id" : 23,
                    "_type" : "Group",
                    "parameters" : {
                      "translation0" : {
                        "type" : "double",
                        "defaultValue" : -1.81898940354586e-12,
                        "interp" : "eioe"
                      },
                      "translation1" : {
                        "type" : "double",
                        "defaultValue" : 1.51203494169749e-11,
                        "interp" : "eioe"
                      },
                      "volume" : 1.0
                    },
                    "tracks" : [
                      {
                        "trackIndex" : 0,
                        "medias" : [
                          {
                            "id" : 24,
                            "_type" : "Callout",
                            "def" : {
                              "kind" : "remix",
                              "shape" : "shape-rectangle",
                              "style" : "basic",
                              "fill-color-blue" : {
                                "type" : "double",
                                "defaultValue" : 1.0,
                                "interp" : "linr"
                              },
                              "fill-color-green" : {
                                "type" : "double",
                                "defaultValue" : 1.0,
                                "interp" : "linr"
                              },
                              "fill-color-opacity" : {
                                "type" : "double",
                                "defaultValue" : 1.0,
                                "interp" : "linr"
                              },
                              "fill-color-red" : {
                                "type" : "double",
                                "defaultValue" : 1.0,
                                "interp" : "linr"
                              },
                              "height" : {
                                "type" : "double",
                                "defaultValue" : 935.999999999706,
                                "interp" : "linr"
                              },
                              "stroke-color-blue" : {
                                "type" : "double",
                                "defaultValue" : 1.0,
                                "interp" : "linr"
                              },
                              "stroke-color-green" : {
                                "type" : "double",
                                "defaultValue" : 1.0,
                                "interp" : "linr"
                              },
                              "stroke-color-opacity" : {
                                "type" : "double",
                                "defaultValue" : 1.0,
                                "interp" : "linr"
                              },
                              "stroke-color-red" : {
                                "type" : "double",
                                "defaultValue" : 1.0,
                                "interp" : "linr"
                              },
                              "stroke-width" : {
                                "type" : "double",
                                "defaultValue" : 0.0,
                                "interp" : "linr"
                              },
                              "width" : {
                                "type" : "double",
                                "defaultValue" : 1919.99999999952,
                                "interp" : "linr"
                              },
                              "fill-style" : "solid",
                              "stroke-style" : "solid"
                            },
                            "attributes" : {
                              "autoRotateText" : true
                            },
                            "effects" : [

                            ],
                            "start" : 1,
                            "duration" : 123,
                            "mediaStart" : 0,
                            "mediaDuration" : 123,
                            "scalar" : 1,
                            "metadata" : {
                              "clipSpeedAttribute" : false
                            },
                            "animationTracks" : {

                            }
                          }
                        ],
                          "ident" : "",
                          "audioMuted" : false,
                          "videoHidden" : false,
                          "magnetic" : false,
                          "metadata" : {
                            "IsLocked" : "False",
                            "WinTrackHeight" : "0"
                          }
                      },
                      {
                        "trackIndex" : 1,
                        "medias" : [
                          {
                            "id" : 25,
                            "_type" : "Callout",
                            "def" : {
                              "kind" : "remix",
                              "shape" : "text",
                              "style" : "basic",
                              "height" : {
                                "type" : "double",
                                "defaultValue" : 450.000000000034,
                                "interp" : "linr"
                              },
                              "line-spacing" : {
                                "type" : "double",
                                "defaultValue" : 0.0,
                                "interp" : "linr"
                              },
                              "width" : {
                                "type" : "double",
                                "defaultValue" : 1271.42857142822,
                                "interp" : "linr"
                              },
                              "word-wrap" : {
                                "type" : "double",
                                "defaultValue" : 1.0,
                                "interp" : "linr"
                              },
                              "horizontal-alignment" : "center",
                              "resize-behavior" : "resizeText",
                              "text" : "Executive Dashboard",
                              "vertical-alignment" : "center",
                              "font" : {
                                "color-blue" : {
                                  "type" : "double",
                                  "defaultValue" : 1.0,
                                  "interp" : "linr"
                                },
                                "color-green" : {
                                  "type" : "double",
                                  "defaultValue" : 1.0,
                                  "interp" : "linr"
                                },
                                "color-red" : {
                                  "type" : "double",
                                  "defaultValue" : 1.0,
                                  "interp" : "linr"
                                },
                                "size" : {
                                  "type" : "double",
                                  "defaultValue" : 96.0,
                                  "interp" : "linr"
                                },
                                "tracking" : {
                                  "type" : "double",
                                  "defaultValue" : 0.0,
                                  "interp" : "linr"
                                },
                                "name" : "Montserrat",
                                "weight" : "Regular"
                              },
                              "textAttributes" : {
                                "type" : "textAttributeList",
                                "keyframes" : [
                                  {
                                    "endTime" : 0,
                                    "time" : 0,
                                    "value" : [{"name":"strikethrough","rangeEnd":19,"rangeStart":0,"value":0,"valueType":"int"},{"name":"underline","rangeEnd":19,"rangeStart":0,"value":0,"valueType":"int"},{"name":"fontName","rangeEnd":19,"rangeStart":0,"value":"Montserrat","valueType":"string"},{"name":"kerning","rangeEnd":19,"rangeStart":0,"value":0,"valueType":"double"},{"name":"fontSize","rangeEnd":19,"rangeStart":0,"value":100,"valueType":"double"},{"name":"fgColor","rangeEnd":19,"rangeStart":0,"value":"(0,174,141,255)","valueType":"color"},{"name":"fontWeight","rangeEnd":19,"rangeStart":0,"value":400,"valueType":"int"},{"name":"fontItalic","rangeEnd":19,"rangeStart":0,"value":0,"valueType":"int"}],
                                    "duration" : 0
                                  }
                                ]
                              }
                            },
                            "attributes" : {
                              "autoRotateText" : true
                            },
                            "parameters" : {
                              "translation0" : {
                                "type" : "double",
                                "defaultValue" : 0.285714285962825,
                                "interp" : "eioe"
                              },
                              "translation1" : {
                                "type" : "double",
                                "defaultValue" : 6.91215973347425e-11,
                                "interp" : "eioe"
                              }
                            },
                            "effects" : [

                            ],
                            "start" : 0,
                            "duration" : 124,
                            "mediaStart" : 0,
                            "mediaDuration" : 124,
                            "scalar" : 1,
                            "metadata" : {
                              "clipSpeedAttribute" : false,
                              "default-HAlign" : "center",
                              "default-LineSpace" : 0.0,
                              "default-VAlign" : "center",
                              "default-text-attributes" : "[{\"name\":\"fgColor\",\"rangeEnd\":9,\"rangeStart\":0,\"value\":\"(0,174,141,255)\",\"valueType\":\"color\"},{\"name\":\"kerning\",\"rangeEnd\":9,\"rangeStart\":0,\"value\":0,\"valueType\":\"double\"},{\"name\":\"fontItalic\",\"rangeEnd\":9,\"rangeStart\":0,\"value\":0,\"valueType\":\"int\"},{\"name\":\"underline\",\"rangeEnd\":9,\"rangeStart\":0,\"value\":0,\"valueType\":\"int\"},{\"name\":\"fontWeight\",\"rangeEnd\":9,\"rangeStart\":0,\"value\":400,\"valueType\":\"int\"},{\"name\":\"fontName\",\"rangeEnd\":9,\"rangeStart\":0,\"value\":\"Montserrat\",\"valueType\":\"string\"},{\"name\":\"fontSize\",\"rangeEnd\":9,\"rangeStart\":0,\"value\":100,\"valueType\":\"double\"},{\"name\":\"strikethrough\",\"rangeEnd\":9,\"rangeStart\":0,\"value\":0,\"valueType\":\"int\"}]",
                              "default-translation0" : -177.714285714172,
                              "default-translation1" : 5.00000000000001
                            },
                            "animationTracks" : {

                            }
                          }
                        ],
                          "ident" : "",
                          "audioMuted" : false,
                          "videoHidden" : false,
                          "magnetic" : false,
                          "metadata" : {
                            "IsLocked" : "False",
                            "WinTrackHeight" : "5.60588108649785e-313"
                          }
                      }
                    ],
                    "attributes" : {
                      "ident" : "Group 1",
                      "gain" : 1.0,
                      "mixToMono" : false
                    },
                    "effects" : [

                    ],
                    "start" : 1135,
                    "duration" : 124,
                    "mediaStart" : 0.0,
                    "mediaDuration" : 124.0,
                    "scalar" : 1,
                    "metadata" : {
                      "IsGroupExpanded" : "False"
                    },
                    "animationTracks" : {

                    }
                  },
                  {
                    "id" : 26,
                    "_type" : "Group",
                    "parameters" : {
                      "translation0" : {
                        "type" : "double",
                        "defaultValue" : -1.81898940354586e-12,
                        "interp" : "eioe"
                      },
                      "translation1" : {
                        "type" : "double",
                        "defaultValue" : 1.51203494169749e-11,
                        "interp" : "eioe"
                      },
                      "volume" : 1.0
                    },
                    "tracks" : [
                      {
                        "trackIndex" : 0,
                        "medias" : [
                          {
                            "id" : 27,
                            "_type" : "Callout",
                            "def" : {
                              "kind" : "remix",
                              "shape" : "shape-rectangle",
                              "style" : "basic",
                              "fill-color-blue" : {
                                "type" : "double",
                                "defaultValue" : 1.0,
                                "interp" : "linr"
                              },
                              "fill-color-green" : {
                                "type" : "double",
                                "defaultValue" : 1.0,
                                "interp" : "linr"
                              },
                              "fill-color-opacity" : {
                                "type" : "double",
                                "defaultValue" : 1.0,
                                "interp" : "linr"
                              },
                              "fill-color-red" : {
                                "type" : "double",
                                "defaultValue" : 1.0,
                                "interp" : "linr"
                              },
                              "height" : {
                                "type" : "double",
                                "defaultValue" : 935.999999999706,
                                "interp" : "linr"
                              },
                              "stroke-color-blue" : {
                                "type" : "double",
                                "defaultValue" : 1.0,
                                "interp" : "linr"
                              },
                              "stroke-color-green" : {
                                "type" : "double",
                                "defaultValue" : 1.0,
                                "interp" : "linr"
                              },
                              "stroke-color-opacity" : {
                                "type" : "double",
                                "defaultValue" : 1.0,
                                "interp" : "linr"
                              },
                              "stroke-color-red" : {
                                "type" : "double",
                                "defaultValue" : 1.0,
                                "interp" : "linr"
                              },
                              "stroke-width" : {
                                "type" : "double",
                                "defaultValue" : 0.0,
                                "interp" : "linr"
                              },
                              "width" : {
                                "type" : "double",
                                "defaultValue" : 1919.99999999952,
                                "interp" : "linr"
                              },
                              "fill-style" : "solid",
                              "stroke-style" : "solid"
                            },
                            "attributes" : {
                              "autoRotateText" : true
                            },
                            "effects" : [

                            ],
                            "start" : 1,
                            "duration" : 123,
                            "mediaStart" : 0,
                            "mediaDuration" : 123,
                            "scalar" : 1,
                            "metadata" : {
                              "clipSpeedAttribute" : false
                            },
                            "animationTracks" : {

                            }
                          }
                        ],
                          "ident" : "",
                          "audioMuted" : false,
                          "videoHidden" : false,
                          "magnetic" : false,
                          "metadata" : {
                            "IsLocked" : "False",
                            "WinTrackHeight" : "0"
                          }
                      },
                      {
                        "trackIndex" : 1,
                        "medias" : [
                          {
                            "id" : 28,
                            "_type" : "Callout",
                            "def" : {
                              "kind" : "remix",
                              "shape" : "text",
                              "style" : "basic",
                              "height" : {
                                "type" : "double",
                                "defaultValue" : 450.000000000034,
                                "interp" : "linr"
                              },
                              "line-spacing" : {
                                "type" : "double",
                                "defaultValue" : 0.0,
                                "interp" : "linr"
                              },
                              "width" : {
                                "type" : "double",
                                "defaultValue" : 1271.42857142822,
                                "interp" : "linr"
                              },
                              "word-wrap" : {
                                "type" : "double",
                                "defaultValue" : 1.0,
                                "interp" : "linr"
                              },
                              "horizontal-alignment" : "center",
                              "resize-behavior" : "resizeText",
                              "text" : "Project Request",
                              "vertical-alignment" : "center",
                              "font" : {
                                "color-blue" : {
                                  "type" : "double",
                                  "defaultValue" : 1.0,
                                  "interp" : "linr"
                                },
                                "color-green" : {
                                  "type" : "double",
                                  "defaultValue" : 1.0,
                                  "interp" : "linr"
                                },
                                "color-red" : {
                                  "type" : "double",
                                  "defaultValue" : 1.0,
                                  "interp" : "linr"
                                },
                                "size" : {
                                  "type" : "double",
                                  "defaultValue" : 96.0,
                                  "interp" : "linr"
                                },
                                "tracking" : {
                                  "type" : "double",
                                  "defaultValue" : 0.0,
                                  "interp" : "linr"
                                },
                                "name" : "Montserrat",
                                "weight" : "Regular"
                              },
                              "textAttributes" : {
                                "type" : "textAttributeList",
                                "keyframes" : [
                                  {
                                    "endTime" : 0,
                                    "time" : 0,
                                    "value" : [{"name":"fontSize","rangeEnd":15,"rangeStart":0,"value":100,"valueType":"double"},{"name":"fontWeight","rangeEnd":15,"rangeStart":0,"value":400,"valueType":"int"},{"name":"underline","rangeEnd":15,"rangeStart":0,"value":0,"valueType":"int"},{"name":"fontName","rangeEnd":15,"rangeStart":0,"value":"Montserrat","valueType":"string"},{"name":"fontItalic","rangeEnd":15,"rangeStart":0,"value":0,"valueType":"int"},{"name":"strikethrough","rangeEnd":15,"rangeStart":0,"value":0,"valueType":"int"},{"name":"kerning","rangeEnd":15,"rangeStart":0,"value":0,"valueType":"double"},{"name":"fgColor","rangeEnd":15,"rangeStart":0,"value":"(0,174,141,255)","valueType":"color"}],
                                    "duration" : 0
                                  }
                                ]
                              }
                            },
                            "attributes" : {
                              "autoRotateText" : true
                            },
                            "parameters" : {
                              "translation0" : {
                                "type" : "double",
                                "defaultValue" : 0.285714285962825,
                                "interp" : "eioe"
                              },
                              "translation1" : {
                                "type" : "double",
                                "defaultValue" : 6.91215973347425e-11,
                                "interp" : "eioe"
                              }
                            },
                            "effects" : [

                            ],
                            "start" : 0,
                            "duration" : 124,
                            "mediaStart" : 0,
                            "mediaDuration" : 124,
                            "scalar" : 1,
                            "metadata" : {
                              "clipSpeedAttribute" : false,
                              "default-HAlign" : "center",
                              "default-LineSpace" : 0.0,
                              "default-VAlign" : "center",
                              "default-text-attributes" : "[{\"name\":\"fgColor\",\"rangeEnd\":9,\"rangeStart\":0,\"value\":\"(0,174,141,255)\",\"valueType\":\"color\"},{\"name\":\"kerning\",\"rangeEnd\":9,\"rangeStart\":0,\"value\":0,\"valueType\":\"double\"},{\"name\":\"fontItalic\",\"rangeEnd\":9,\"rangeStart\":0,\"value\":0,\"valueType\":\"int\"},{\"name\":\"underline\",\"rangeEnd\":9,\"rangeStart\":0,\"value\":0,\"valueType\":\"int\"},{\"name\":\"fontWeight\",\"rangeEnd\":9,\"rangeStart\":0,\"value\":400,\"valueType\":\"int\"},{\"name\":\"fontName\",\"rangeEnd\":9,\"rangeStart\":0,\"value\":\"Montserrat\",\"valueType\":\"string\"},{\"name\":\"fontSize\",\"rangeEnd\":9,\"rangeStart\":0,\"value\":100,\"valueType\":\"double\"},{\"name\":\"strikethrough\",\"rangeEnd\":9,\"rangeStart\":0,\"value\":0,\"valueType\":\"int\"}]",
                              "default-translation0" : -177.714285714172,
                              "default-translation1" : 5.00000000000001
                            },
                            "animationTracks" : {

                            }
                          }
                        ],
                          "ident" : "",
                          "audioMuted" : false,
                          "videoHidden" : false,
                          "magnetic" : false,
                          "metadata" : {
                            "IsLocked" : "False",
                            "WinTrackHeight" : "5.60588108649785e-313"
                          }
                      }
                    ],
                    "attributes" : {
                      "ident" : "Group 1",
                      "gain" : 1.0,
                      "mixToMono" : false
                    },
                    "effects" : [

                    ],
                    "start" : 1952,
                    "duration" : 124,
                    "mediaStart" : 0.0,
                    "mediaDuration" : 124.0,
                    "scalar" : 1,
                    "metadata" : {
                      "IsGroupExpanded" : "False"
                    },
                    "animationTracks" : {

                    }
                  },
                  {
                    "id" : 29,
                    "_type" : "Group",
                    "parameters" : {
                      "translation0" : {
                        "type" : "double",
                        "defaultValue" : -1.81898940354586e-12,
                        "interp" : "eioe"
                      },
                      "translation1" : {
                        "type" : "double",
                        "defaultValue" : 1.51203494169749e-11,
                        "interp" : "eioe"
                      },
                      "volume" : 1.0
                    },
                    "tracks" : [
                      {
                        "trackIndex" : 0,
                        "medias" : [
                          {
                            "id" : 30,
                            "_type" : "Callout",
                            "def" : {
                              "kind" : "remix",
                              "shape" : "shape-rectangle",
                              "style" : "basic",
                              "fill-color-blue" : {
                                "type" : "double",
                                "defaultValue" : 1.0,
                                "interp" : "linr"
                              },
                              "fill-color-green" : {
                                "type" : "double",
                                "defaultValue" : 1.0,
                                "interp" : "linr"
                              },
                              "fill-color-opacity" : {
                                "type" : "double",
                                "defaultValue" : 1.0,
                                "interp" : "linr"
                              },
                              "fill-color-red" : {
                                "type" : "double",
                                "defaultValue" : 1.0,
                                "interp" : "linr"
                              },
                              "height" : {
                                "type" : "double",
                                "defaultValue" : 935.999999999706,
                                "interp" : "linr"
                              },
                              "stroke-color-blue" : {
                                "type" : "double",
                                "defaultValue" : 1.0,
                                "interp" : "linr"
                              },
                              "stroke-color-green" : {
                                "type" : "double",
                                "defaultValue" : 1.0,
                                "interp" : "linr"
                              },
                              "stroke-color-opacity" : {
                                "type" : "double",
                                "defaultValue" : 1.0,
                                "interp" : "linr"
                              },
                              "stroke-color-red" : {
                                "type" : "double",
                                "defaultValue" : 1.0,
                                "interp" : "linr"
                              },
                              "stroke-width" : {
                                "type" : "double",
                                "defaultValue" : 0.0,
                                "interp" : "linr"
                              },
                              "width" : {
                                "type" : "double",
                                "defaultValue" : 1919.99999999952,
                                "interp" : "linr"
                              },
                              "fill-style" : "solid",
                              "stroke-style" : "solid"
                            },
                            "attributes" : {
                              "autoRotateText" : true
                            },
                            "effects" : [

                            ],
                            "start" : 1,
                            "duration" : 123,
                            "mediaStart" : 0,
                            "mediaDuration" : 123,
                            "scalar" : 1,
                            "metadata" : {
                              "clipSpeedAttribute" : false
                            },
                            "animationTracks" : {

                            }
                          }
                        ],
                          "ident" : "",
                          "audioMuted" : false,
                          "videoHidden" : false,
                          "magnetic" : false,
                          "metadata" : {
                            "IsLocked" : "False",
                            "WinTrackHeight" : "0"
                          }
                      },
                      {
                        "trackIndex" : 1,
                        "medias" : [
                          {
                            "id" : 31,
                            "_type" : "Callout",
                            "def" : {
                              "kind" : "remix",
                              "shape" : "text",
                              "style" : "basic",
                              "height" : {
                                "type" : "double",
                                "defaultValue" : 450.000000000034,
                                "interp" : "linr"
                              },
                              "line-spacing" : {
                                "type" : "double",
                                "defaultValue" : 0.0,
                                "interp" : "linr"
                              },
                              "width" : {
                                "type" : "double",
                                "defaultValue" : 1271.42857142822,
                                "interp" : "linr"
                              },
                              "word-wrap" : {
                                "type" : "double",
                                "defaultValue" : 1.0,
                                "interp" : "linr"
                              },
                              "horizontal-alignment" : "center",
                              "resize-behavior" : "resizeText",
                              "text" : "New Project",
                              "vertical-alignment" : "center",
                              "font" : {
                                "color-blue" : {
                                  "type" : "double",
                                  "defaultValue" : 1.0,
                                  "interp" : "linr"
                                },
                                "color-green" : {
                                  "type" : "double",
                                  "defaultValue" : 1.0,
                                  "interp" : "linr"
                                },
                                "color-red" : {
                                  "type" : "double",
                                  "defaultValue" : 1.0,
                                  "interp" : "linr"
                                },
                                "size" : {
                                  "type" : "double",
                                  "defaultValue" : 96.0,
                                  "interp" : "linr"
                                },
                                "tracking" : {
                                  "type" : "double",
                                  "defaultValue" : 0.0,
                                  "interp" : "linr"
                                },
                                "name" : "Montserrat",
                                "weight" : "Regular"
                              },
                              "textAttributes" : {
                                "type" : "textAttributeList",
                                "keyframes" : [
                                  {
                                    "endTime" : 0,
                                    "time" : 0,
                                    "value" : [{"name":"fgColor","rangeEnd":11,"rangeStart":0,"value":"(0,174,141,255)","valueType":"color"},{"name":"fontWeight","rangeEnd":11,"rangeStart":0,"value":400,"valueType":"int"},{"name":"underline","rangeEnd":11,"rangeStart":0,"value":0,"valueType":"int"},{"name":"fontName","rangeEnd":11,"rangeStart":0,"value":"Montserrat","valueType":"string"},{"name":"strikethrough","rangeEnd":11,"rangeStart":0,"value":0,"valueType":"int"},{"name":"fontItalic","rangeEnd":11,"rangeStart":0,"value":0,"valueType":"int"},{"name":"fontSize","rangeEnd":11,"rangeStart":0,"value":100,"valueType":"double"},{"name":"kerning","rangeEnd":11,"rangeStart":0,"value":0,"valueType":"double"}],
                                    "duration" : 0
                                  }
                                ]
                              }
                            },
                            "attributes" : {
                              "autoRotateText" : true
                            },
                            "parameters" : {
                              "translation0" : {
                                "type" : "double",
                                "defaultValue" : 0.285714285962825,
                                "interp" : "eioe"
                              },
                              "translation1" : {
                                "type" : "double",
                                "defaultValue" : 6.91215973347425e-11,
                                "interp" : "eioe"
                              }
                            },
                            "effects" : [

                            ],
                            "start" : 0,
                            "duration" : 124,
                            "mediaStart" : 0,
                            "mediaDuration" : 124,
                            "scalar" : 1,
                            "metadata" : {
                              "clipSpeedAttribute" : false,
                              "default-HAlign" : "center",
                              "default-LineSpace" : 0.0,
                              "default-VAlign" : "center",
                              "default-text-attributes" : "[{\"name\":\"fgColor\",\"rangeEnd\":9,\"rangeStart\":0,\"value\":\"(0,174,141,255)\",\"valueType\":\"color\"},{\"name\":\"kerning\",\"rangeEnd\":9,\"rangeStart\":0,\"value\":0,\"valueType\":\"double\"},{\"name\":\"fontItalic\",\"rangeEnd\":9,\"rangeStart\":0,\"value\":0,\"valueType\":\"int\"},{\"name\":\"underline\",\"rangeEnd\":9,\"rangeStart\":0,\"value\":0,\"valueType\":\"int\"},{\"name\":\"fontWeight\",\"rangeEnd\":9,\"rangeStart\":0,\"value\":400,\"valueType\":\"int\"},{\"name\":\"fontName\",\"rangeEnd\":9,\"rangeStart\":0,\"value\":\"Montserrat\",\"valueType\":\"string\"},{\"name\":\"fontSize\",\"rangeEnd\":9,\"rangeStart\":0,\"value\":100,\"valueType\":\"double\"},{\"name\":\"strikethrough\",\"rangeEnd\":9,\"rangeStart\":0,\"value\":0,\"valueType\":\"int\"}]",
                              "default-translation0" : -177.714285714172,
                              "default-translation1" : 5.00000000000001
                            },
                            "animationTracks" : {

                            }
                          }
                        ],
                          "ident" : "",
                          "audioMuted" : false,
                          "videoHidden" : false,
                          "magnetic" : false,
                          "metadata" : {
                            "IsLocked" : "False",
                            "WinTrackHeight" : "5.60588108649785e-313"
                          }
                      }
                    ],
                    "attributes" : {
                      "ident" : "Group 1",
                      "gain" : 1.0,
                      "mixToMono" : false
                    },
                    "effects" : [

                    ],
                    "start" : 3954,
                    "duration" : 124,
                    "mediaStart" : 0.0,
                    "mediaDuration" : 124.0,
                    "scalar" : 1,
                    "metadata" : {
                      "IsGroupExpanded" : "False"
                    },
                    "animationTracks" : {

                    }
                  },
                  {
                    "id" : 32,
                    "_type" : "Group",
                    "parameters" : {
                      "translation0" : {
                        "type" : "double",
                        "defaultValue" : -1.81898940354586e-12,
                        "interp" : "eioe"
                      },
                      "translation1" : {
                        "type" : "double",
                        "defaultValue" : 1.51203494169749e-11,
                        "interp" : "eioe"
                      },
                      "volume" : 1.0
                    },
                    "tracks" : [
                      {
                        "trackIndex" : 0,
                        "medias" : [
                          {
                            "id" : 33,
                            "_type" : "Callout",
                            "def" : {
                              "kind" : "remix",
                              "shape" : "shape-rectangle",
                              "style" : "basic",
                              "fill-color-blue" : {
                                "type" : "double",
                                "defaultValue" : 1.0,
                                "interp" : "linr"
                              },
                              "fill-color-green" : {
                                "type" : "double",
                                "defaultValue" : 1.0,
                                "interp" : "linr"
                              },
                              "fill-color-opacity" : {
                                "type" : "double",
                                "defaultValue" : 1.0,
                                "interp" : "linr"
                              },
                              "fill-color-red" : {
                                "type" : "double",
                                "defaultValue" : 1.0,
                                "interp" : "linr"
                              },
                              "height" : {
                                "type" : "double",
                                "defaultValue" : 935.999999999706,
                                "interp" : "linr"
                              },
                              "stroke-color-blue" : {
                                "type" : "double",
                                "defaultValue" : 1.0,
                                "interp" : "linr"
                              },
                              "stroke-color-green" : {
                                "type" : "double",
                                "defaultValue" : 1.0,
                                "interp" : "linr"
                              },
                              "stroke-color-opacity" : {
                                "type" : "double",
                                "defaultValue" : 1.0,
                                "interp" : "linr"
                              },
                              "stroke-color-red" : {
                                "type" : "double",
                                "defaultValue" : 1.0,
                                "interp" : "linr"
                              },
                              "stroke-width" : {
                                "type" : "double",
                                "defaultValue" : 0.0,
                                "interp" : "linr"
                              },
                              "width" : {
                                "type" : "double",
                                "defaultValue" : 1919.99999999952,
                                "interp" : "linr"
                              },
                              "fill-style" : "solid",
                              "stroke-style" : "solid"
                            },
                            "attributes" : {
                              "autoRotateText" : true
                            },
                            "effects" : [

                            ],
                            "start" : 1,
                            "duration" : 123,
                            "mediaStart" : 0,
                            "mediaDuration" : 123,
                            "scalar" : 1,
                            "metadata" : {
                              "clipSpeedAttribute" : false
                            },
                            "animationTracks" : {

                            }
                          }
                        ],
                          "ident" : "",
                          "audioMuted" : false,
                          "videoHidden" : false,
                          "magnetic" : false,
                          "metadata" : {
                            "IsLocked" : "False",
                            "WinTrackHeight" : "0"
                          }
                      },
                      {
                        "trackIndex" : 1,
                        "medias" : [
                          {
                            "id" : 34,
                            "_type" : "Callout",
                            "def" : {
                              "kind" : "remix",
                              "shape" : "text",
                              "style" : "basic",
                              "height" : {
                                "type" : "double",
                                "defaultValue" : 450.000000000034,
                                "interp" : "linr"
                              },
                              "line-spacing" : {
                                "type" : "double",
                                "defaultValue" : 0.0,
                                "interp" : "linr"
                              },
                              "width" : {
                                "type" : "double",
                                "defaultValue" : 1271.42857142822,
                                "interp" : "linr"
                              },
                              "word-wrap" : {
                                "type" : "double",
                                "defaultValue" : 1.0,
                                "interp" : "linr"
                              },
                              "horizontal-alignment" : "center",
                              "resize-behavior" : "resizeText",
                              "text" : "New Initiative",
                              "vertical-alignment" : "center",
                              "font" : {
                                "color-blue" : {
                                  "type" : "double",
                                  "defaultValue" : 1.0,
                                  "interp" : "linr"
                                },
                                "color-green" : {
                                  "type" : "double",
                                  "defaultValue" : 1.0,
                                  "interp" : "linr"
                                },
                                "color-red" : {
                                  "type" : "double",
                                  "defaultValue" : 1.0,
                                  "interp" : "linr"
                                },
                                "size" : {
                                  "type" : "double",
                                  "defaultValue" : 96.0,
                                  "interp" : "linr"
                                },
                                "tracking" : {
                                  "type" : "double",
                                  "defaultValue" : 0.0,
                                  "interp" : "linr"
                                },
                                "name" : "Montserrat",
                                "weight" : "Regular"
                              },
                              "textAttributes" : {
                                "type" : "textAttributeList",
                                "keyframes" : [
                                  {
                                    "endTime" : 0,
                                    "time" : 0,
                                    "value" : [{"name":"fontName","rangeEnd":14,"rangeStart":0,"value":"Montserrat","valueType":"string"},{"name":"strikethrough","rangeEnd":14,"rangeStart":0,"value":0,"valueType":"int"},{"name":"underline","rangeEnd":14,"rangeStart":0,"value":0,"valueType":"int"},{"name":"kerning","rangeEnd":14,"rangeStart":0,"value":0,"valueType":"double"},{"name":"fgColor","rangeEnd":14,"rangeStart":0,"value":"(0,174,141,255)","valueType":"color"},{"name":"fontWeight","rangeEnd":14,"rangeStart":0,"value":400,"valueType":"int"},{"name":"fontItalic","rangeEnd":14,"rangeStart":0,"value":0,"valueType":"int"},{"name":"fontSize","rangeEnd":14,"rangeStart":0,"value":100,"valueType":"double"}],
                                    "duration" : 0
                                  }
                                ]
                              }
                            },
                            "attributes" : {
                              "autoRotateText" : true
                            },
                            "parameters" : {
                              "translation0" : {
                                "type" : "double",
                                "defaultValue" : 0.285714285962825,
                                "interp" : "eioe"
                              },
                              "translation1" : {
                                "type" : "double",
                                "defaultValue" : 6.91215973347425e-11,
                                "interp" : "eioe"
                              }
                            },
                            "effects" : [

                            ],
                            "start" : 0,
                            "duration" : 124,
                            "mediaStart" : 0,
                            "mediaDuration" : 124,
                            "scalar" : 1,
                            "metadata" : {
                              "clipSpeedAttribute" : false,
                              "default-HAlign" : "center",
                              "default-LineSpace" : 0.0,
                              "default-VAlign" : "center",
                              "default-text-attributes" : "[{\"name\":\"fgColor\",\"rangeEnd\":9,\"rangeStart\":0,\"value\":\"(0,174,141,255)\",\"valueType\":\"color\"},{\"name\":\"kerning\",\"rangeEnd\":9,\"rangeStart\":0,\"value\":0,\"valueType\":\"double\"},{\"name\":\"fontItalic\",\"rangeEnd\":9,\"rangeStart\":0,\"value\":0,\"valueType\":\"int\"},{\"name\":\"underline\",\"rangeEnd\":9,\"rangeStart\":0,\"value\":0,\"valueType\":\"int\"},{\"name\":\"fontWeight\",\"rangeEnd\":9,\"rangeStart\":0,\"value\":400,\"valueType\":\"int\"},{\"name\":\"fontName\",\"rangeEnd\":9,\"rangeStart\":0,\"value\":\"Montserrat\",\"valueType\":\"string\"},{\"name\":\"fontSize\",\"rangeEnd\":9,\"rangeStart\":0,\"value\":100,\"valueType\":\"double\"},{\"name\":\"strikethrough\",\"rangeEnd\":9,\"rangeStart\":0,\"value\":0,\"valueType\":\"int\"}]",
                              "default-translation0" : -177.714285714172,
                              "default-translation1" : 5.00000000000001
                            },
                            "animationTracks" : {

                            }
                          }
                        ],
                          "ident" : "",
                          "audioMuted" : false,
                          "videoHidden" : false,
                          "magnetic" : false,
                          "metadata" : {
                            "IsLocked" : "False",
                            "WinTrackHeight" : "5.60588108649785e-313"
                          }
                      }
                    ],
                    "attributes" : {
                      "ident" : "Group 1",
                      "gain" : 1.0,
                      "mixToMono" : false
                    },
                    "effects" : [

                    ],
                    "start" : 5814,
                    "duration" : 124,
                    "mediaStart" : 0.0,
                    "mediaDuration" : 124.0,
                    "scalar" : 1,
                    "metadata" : {
                      "IsGroupExpanded" : "False"
                    },
                    "animationTracks" : {

                    }
                  },
                  {
                    "id" : 35,
                    "_type" : "Group",
                    "parameters" : {
                      "translation0" : {
                        "type" : "double",
                        "defaultValue" : -1.81898940354586e-12,
                        "interp" : "eioe"
                      },
                      "translation1" : {
                        "type" : "double",
                        "defaultValue" : 1.51203494169749e-11,
                        "interp" : "eioe"
                      },
                      "volume" : 1.0
                    },
                    "tracks" : [
                      {
                        "trackIndex" : 0,
                        "medias" : [
                          {
                            "id" : 36,
                            "_type" : "Callout",
                            "def" : {
                              "kind" : "remix",
                              "shape" : "shape-rectangle",
                              "style" : "basic",
                              "fill-color-blue" : {
                                "type" : "double",
                                "defaultValue" : 1.0,
                                "interp" : "linr"
                              },
                              "fill-color-green" : {
                                "type" : "double",
                                "defaultValue" : 1.0,
                                "interp" : "linr"
                              },
                              "fill-color-opacity" : {
                                "type" : "double",
                                "defaultValue" : 1.0,
                                "interp" : "linr"
                              },
                              "fill-color-red" : {
                                "type" : "double",
                                "defaultValue" : 1.0,
                                "interp" : "linr"
                              },
                              "height" : {
                                "type" : "double",
                                "defaultValue" : 935.999999999706,
                                "interp" : "linr"
                              },
                              "stroke-color-blue" : {
                                "type" : "double",
                                "defaultValue" : 1.0,
                                "interp" : "linr"
                              },
                              "stroke-color-green" : {
                                "type" : "double",
                                "defaultValue" : 1.0,
                                "interp" : "linr"
                              },
                              "stroke-color-opacity" : {
                                "type" : "double",
                                "defaultValue" : 1.0,
                                "interp" : "linr"
                              },
                              "stroke-color-red" : {
                                "type" : "double",
                                "defaultValue" : 1.0,
                                "interp" : "linr"
                              },
                              "stroke-width" : {
                                "type" : "double",
                                "defaultValue" : 0.0,
                                "interp" : "linr"
                              },
                              "width" : {
                                "type" : "double",
                                "defaultValue" : 1919.99999999952,
                                "interp" : "linr"
                              },
                              "fill-style" : "solid",
                              "stroke-style" : "solid"
                            },
                            "attributes" : {
                              "autoRotateText" : true
                            },
                            "effects" : [

                            ],
                            "start" : 1,
                            "duration" : 123,
                            "mediaStart" : 0,
                            "mediaDuration" : 123,
                            "scalar" : 1,
                            "metadata" : {
                              "clipSpeedAttribute" : false
                            },
                            "animationTracks" : {

                            }
                          }
                        ],
                          "ident" : "",
                          "audioMuted" : false,
                          "videoHidden" : false,
                          "magnetic" : false,
                          "metadata" : {
                            "IsLocked" : "False",
                            "WinTrackHeight" : "0"
                          }
                      },
                      {
                        "trackIndex" : 1,
                        "medias" : [
                          {
                            "id" : 37,
                            "_type" : "Callout",
                            "def" : {
                              "kind" : "remix",
                              "shape" : "text",
                              "style" : "basic",
                              "height" : {
                                "type" : "double",
                                "defaultValue" : 450.000000000034,
                                "interp" : "linr"
                              },
                              "line-spacing" : {
                                "type" : "double",
                                "defaultValue" : 0.0,
                                "interp" : "linr"
                              },
                              "width" : {
                                "type" : "double",
                                "defaultValue" : 1271.42857142822,
                                "interp" : "linr"
                              },
                              "word-wrap" : {
                                "type" : "double",
                                "defaultValue" : 1.0,
                                "interp" : "linr"
                              },
                              "horizontal-alignment" : "center",
                              "resize-behavior" : "resizeText",
                              "text" : "Objectives",
                              "vertical-alignment" : "center",
                              "font" : {
                                "color-blue" : {
                                  "type" : "double",
                                  "defaultValue" : 1.0,
                                  "interp" : "linr"
                                },
                                "color-green" : {
                                  "type" : "double",
                                  "defaultValue" : 1.0,
                                  "interp" : "linr"
                                },
                                "color-red" : {
                                  "type" : "double",
                                  "defaultValue" : 1.0,
                                  "interp" : "linr"
                                },
                                "size" : {
                                  "type" : "double",
                                  "defaultValue" : 96.0,
                                  "interp" : "linr"
                                },
                                "tracking" : {
                                  "type" : "double",
                                  "defaultValue" : 0.0,
                                  "interp" : "linr"
                                },
                                "name" : "Montserrat",
                                "weight" : "Regular"
                              },
                              "textAttributes" : {
                                "type" : "textAttributeList",
                                "keyframes" : [
                                  {
                                    "endTime" : 0,
                                    "time" : 0,
                                    "value" : [{"name":"fgColor","rangeEnd":10,"rangeStart":0,"value":"(0,174,141,255)","valueType":"color"},{"name":"fontWeight","rangeEnd":10,"rangeStart":0,"value":400,"valueType":"int"},{"name":"fontSize","rangeEnd":10,"rangeStart":0,"value":100,"valueType":"double"},{"name":"kerning","rangeEnd":10,"rangeStart":0,"value":0,"valueType":"double"},{"name":"fontItalic","rangeEnd":10,"rangeStart":0,"value":0,"valueType":"int"},{"name":"fontName","rangeEnd":10,"rangeStart":0,"value":"Montserrat","valueType":"string"},{"name":"underline","rangeEnd":10,"rangeStart":0,"value":0,"valueType":"int"},{"name":"strikethrough","rangeEnd":10,"rangeStart":0,"value":0,"valueType":"int"}],
                                    "duration" : 0
                                  }
                                ]
                              }
                            },
                            "attributes" : {
                              "autoRotateText" : true
                            },
                            "parameters" : {
                              "translation0" : {
                                "type" : "double",
                                "defaultValue" : 0.285714285962825,
                                "interp" : "eioe"
                              },
                              "translation1" : {
                                "type" : "double",
                                "defaultValue" : 6.91215973347425e-11,
                                "interp" : "eioe"
                              }
                            },
                            "effects" : [

                            ],
                            "start" : 0,
                            "duration" : 124,
                            "mediaStart" : 0,
                            "mediaDuration" : 124,
                            "scalar" : 1,
                            "metadata" : {
                              "clipSpeedAttribute" : false,
                              "default-HAlign" : "center",
                              "default-LineSpace" : 0.0,
                              "default-VAlign" : "center",
                              "default-text-attributes" : "[{\"name\":\"fgColor\",\"rangeEnd\":9,\"rangeStart\":0,\"value\":\"(0,174,141,255)\",\"valueType\":\"color\"},{\"name\":\"kerning\",\"rangeEnd\":9,\"rangeStart\":0,\"value\":0,\"valueType\":\"double\"},{\"name\":\"fontItalic\",\"rangeEnd\":9,\"rangeStart\":0,\"value\":0,\"valueType\":\"int\"},{\"name\":\"underline\",\"rangeEnd\":9,\"rangeStart\":0,\"value\":0,\"valueType\":\"int\"},{\"name\":\"fontWeight\",\"rangeEnd\":9,\"rangeStart\":0,\"value\":400,\"valueType\":\"int\"},{\"name\":\"fontName\",\"rangeEnd\":9,\"rangeStart\":0,\"value\":\"Montserrat\",\"valueType\":\"string\"},{\"name\":\"fontSize\",\"rangeEnd\":9,\"rangeStart\":0,\"value\":100,\"valueType\":\"double\"},{\"name\":\"strikethrough\",\"rangeEnd\":9,\"rangeStart\":0,\"value\":0,\"valueType\":\"int\"}]",
                              "default-translation0" : -177.714285714172,
                              "default-translation1" : 5.00000000000001
                            },
                            "animationTracks" : {

                            }
                          }
                        ],
                          "ident" : "",
                          "audioMuted" : false,
                          "videoHidden" : false,
                          "magnetic" : false,
                          "metadata" : {
                            "IsLocked" : "False",
                            "WinTrackHeight" : "5.60588108649785e-313"
                          }
                      }
                    ],
                    "attributes" : {
                      "ident" : "Group 1",
                      "gain" : 1.0,
                      "mixToMono" : false
                    },
                    "effects" : [

                    ],
                    "start" : 6967,
                    "duration" : 124,
                    "mediaStart" : 0.0,
                    "mediaDuration" : 124.0,
                    "scalar" : 1,
                    "metadata" : {
                      "IsGroupExpanded" : "False"
                    },
                    "animationTracks" : {

                    }
                  },
                  {
                    "id" : 38,
                    "_type" : "Group",
                    "parameters" : {
                      "translation0" : {
                        "type" : "double",
                        "defaultValue" : -1.81898940354586e-12,
                        "interp" : "eioe"
                      },
                      "translation1" : {
                        "type" : "double",
                        "defaultValue" : 1.51203494169749e-11,
                        "interp" : "eioe"
                      },
                      "volume" : 1.0
                    },
                    "tracks" : [
                      {
                        "trackIndex" : 0,
                        "medias" : [
                          {
                            "id" : 39,
                            "_type" : "Callout",
                            "def" : {
                              "kind" : "remix",
                              "shape" : "shape-rectangle",
                              "style" : "basic",
                              "fill-color-blue" : {
                                "type" : "double",
                                "defaultValue" : 1.0,
                                "interp" : "linr"
                              },
                              "fill-color-green" : {
                                "type" : "double",
                                "defaultValue" : 1.0,
                                "interp" : "linr"
                              },
                              "fill-color-opacity" : {
                                "type" : "double",
                                "defaultValue" : 1.0,
                                "interp" : "linr"
                              },
                              "fill-color-red" : {
                                "type" : "double",
                                "defaultValue" : 1.0,
                                "interp" : "linr"
                              },
                              "height" : {
                                "type" : "double",
                                "defaultValue" : 935.999999999706,
                                "interp" : "linr"
                              },
                              "stroke-color-blue" : {
                                "type" : "double",
                                "defaultValue" : 1.0,
                                "interp" : "linr"
                              },
                              "stroke-color-green" : {
                                "type" : "double",
                                "defaultValue" : 1.0,
                                "interp" : "linr"
                              },
                              "stroke-color-opacity" : {
                                "type" : "double",
                                "defaultValue" : 1.0,
                                "interp" : "linr"
                              },
                              "stroke-color-red" : {
                                "type" : "double",
                                "defaultValue" : 1.0,
                                "interp" : "linr"
                              },
                              "stroke-width" : {
                                "type" : "double",
                                "defaultValue" : 0.0,
                                "interp" : "linr"
                              },
                              "width" : {
                                "type" : "double",
                                "defaultValue" : 1919.99999999952,
                                "interp" : "linr"
                              },
                              "fill-style" : "solid",
                              "stroke-style" : "solid"
                            },
                            "attributes" : {
                              "autoRotateText" : true
                            },
                            "effects" : [

                            ],
                            "start" : 1,
                            "duration" : 123,
                            "mediaStart" : 0,
                            "mediaDuration" : 123,
                            "scalar" : 1,
                            "metadata" : {
                              "clipSpeedAttribute" : false
                            },
                            "animationTracks" : {

                            }
                          }
                        ],
                          "ident" : "",
                          "audioMuted" : false,
                          "videoHidden" : false,
                          "magnetic" : false,
                          "metadata" : {
                            "IsLocked" : "False",
                            "WinTrackHeight" : "0"
                          }
                      },
                      {
                        "trackIndex" : 1,
                        "medias" : [
                          {
                            "id" : 40,
                            "_type" : "Callout",
                            "def" : {
                              "kind" : "remix",
                              "shape" : "text",
                              "style" : "basic",
                              "height" : {
                                "type" : "double",
                                "defaultValue" : 450.000000000034,
                                "interp" : "linr"
                              },
                              "line-spacing" : {
                                "type" : "double",
                                "defaultValue" : 0.0,
                                "interp" : "linr"
                              },
                              "width" : {
                                "type" : "double",
                                "defaultValue" : 1271.42857142822,
                                "interp" : "linr"
                              },
                              "word-wrap" : {
                                "type" : "double",
                                "defaultValue" : 1.0,
                                "interp" : "linr"
                              },
                              "horizontal-alignment" : "center",
                              "resize-behavior" : "resizeText",
                              "text" : "KPI",
                              "vertical-alignment" : "center",
                              "font" : {
                                "color-blue" : {
                                  "type" : "double",
                                  "defaultValue" : 1.0,
                                  "interp" : "linr"
                                },
                                "color-green" : {
                                  "type" : "double",
                                  "defaultValue" : 1.0,
                                  "interp" : "linr"
                                },
                                "color-red" : {
                                  "type" : "double",
                                  "defaultValue" : 1.0,
                                  "interp" : "linr"
                                },
                                "size" : {
                                  "type" : "double",
                                  "defaultValue" : 96.0,
                                  "interp" : "linr"
                                },
                                "tracking" : {
                                  "type" : "double",
                                  "defaultValue" : 0.0,
                                  "interp" : "linr"
                                },
                                "name" : "Montserrat",
                                "weight" : "Regular"
                              },
                              "textAttributes" : {
                                "type" : "textAttributeList",
                                "keyframes" : [
                                  {
                                    "endTime" : 0,
                                    "time" : 0,
                                    "value" : [{"name":"underline","rangeEnd":3,"rangeStart":0,"value":0,"valueType":"int"},{"name":"fontWeight","rangeEnd":3,"rangeStart":0,"value":400,"valueType":"int"},{"name":"fgColor","rangeEnd":3,"rangeStart":0,"value":"(0,174,141,255)","valueType":"color"},{"name":"fontItalic","rangeEnd":3,"rangeStart":0,"value":0,"valueType":"int"},{"name":"fontName","rangeEnd":3,"rangeStart":0,"value":"Montserrat","valueType":"string"},{"name":"kerning","rangeEnd":3,"rangeStart":0,"value":0,"valueType":"double"},{"name":"strikethrough","rangeEnd":3,"rangeStart":0,"value":0,"valueType":"int"},{"name":"fontSize","rangeEnd":3,"rangeStart":0,"value":100,"valueType":"double"}],
                                    "duration" : 0
                                  }
                                ]
                              }
                            },
                            "attributes" : {
                              "autoRotateText" : true
                            },
                            "parameters" : {
                              "translation0" : {
                                "type" : "double",
                                "defaultValue" : 0.285714285962825,
                                "interp" : "eioe"
                              },
                              "translation1" : {
                                "type" : "double",
                                "defaultValue" : 6.91215973347425e-11,
                                "interp" : "eioe"
                              }
                            },
                            "effects" : [

                            ],
                            "start" : 0,
                            "duration" : 124,
                            "mediaStart" : 0,
                            "mediaDuration" : 124,
                            "scalar" : 1,
                            "metadata" : {
                              "clipSpeedAttribute" : false,
                              "default-HAlign" : "center",
                              "default-LineSpace" : 0.0,
                              "default-VAlign" : "center",
                              "default-text-attributes" : "[{\"name\":\"fgColor\",\"rangeEnd\":9,\"rangeStart\":0,\"value\":\"(0,174,141,255)\",\"valueType\":\"color\"},{\"name\":\"kerning\",\"rangeEnd\":9,\"rangeStart\":0,\"value\":0,\"valueType\":\"double\"},{\"name\":\"fontItalic\",\"rangeEnd\":9,\"rangeStart\":0,\"value\":0,\"valueType\":\"int\"},{\"name\":\"underline\",\"rangeEnd\":9,\"rangeStart\":0,\"value\":0,\"valueType\":\"int\"},{\"name\":\"fontWeight\",\"rangeEnd\":9,\"rangeStart\":0,\"value\":400,\"valueType\":\"int\"},{\"name\":\"fontName\",\"rangeEnd\":9,\"rangeStart\":0,\"value\":\"Montserrat\",\"valueType\":\"string\"},{\"name\":\"fontSize\",\"rangeEnd\":9,\"rangeStart\":0,\"value\":100,\"valueType\":\"double\"},{\"name\":\"strikethrough\",\"rangeEnd\":9,\"rangeStart\":0,\"value\":0,\"valueType\":\"int\"}]",
                              "default-translation0" : -177.714285714172,
                              "default-translation1" : 5.00000000000001
                            },
                            "animationTracks" : {

                            }
                          }
                        ],
                          "ident" : "",
                          "audioMuted" : false,
                          "videoHidden" : false,
                          "magnetic" : false,
                          "metadata" : {
                            "IsLocked" : "False",
                            "WinTrackHeight" : "5.60588108649785e-313"
                          }
                      }
                    ],
                    "attributes" : {
                      "ident" : "Group 1",
                      "gain" : 1.0,
                      "mixToMono" : false
                    },
                    "effects" : [

                    ],
                    "start" : 7884,
                    "duration" : 124,
                    "mediaStart" : 0.0,
                    "mediaDuration" : 124.0,
                    "scalar" : 1,
                    "metadata" : {
                      "IsGroupExpanded" : "False"
                    },
                    "animationTracks" : {

                    }
                  },
                  {
                    "id" : 41,
                    "_type" : "Group",
                    "parameters" : {
                      "translation0" : -1.81898940354586e-12,
                      "translation1" : 1.51203494169749e-11,
                      "volume" : 1.0
                    },
                    "tracks" : [
                      {
                        "trackIndex" : 0,
                        "medias" : [
                          {
                            "id" : 42,
                            "_type" : "Callout",
                            "def" : {
                              "kind" : "remix",
                              "shape" : "shape-rectangle",
                              "style" : "basic",
                              "fill-color-blue" : 1.0,
                              "fill-color-green" : 1.0,
                              "fill-color-opacity" : 1.0,
                              "fill-color-red" : 1.0,
                              "height" : 935.999999999706,
                              "stroke-color-blue" : 1.0,
                              "stroke-color-green" : 1.0,
                              "stroke-color-opacity" : 1.0,
                              "stroke-color-red" : 1.0,
                              "stroke-width" : 0.0,
                              "width" : 1919.99999999952,
                              "fill-style" : "solid",
                              "stroke-style" : "solid"
                            },
                            "attributes" : {
                              "autoRotateText" : true
                            },
                            "effects" : [

                            ],
                            "start" : 1,
                            "duration" : 123,
                            "mediaStart" : 0,
                            "mediaDuration" : 123,
                            "scalar" : 1,
                            "metadata" : {
                              "clipSpeedAttribute" : false
                            },
                            "animationTracks" : {

                            }
                          }
                        ],
                          "ident" : "",
                          "audioMuted" : false,
                          "videoHidden" : false,
                          "magnetic" : false,
                          "metadata" : {
                            "IsLocked" : "False",
                            "WinTrackHeight" : "0"
                          }
                      },
                      {
                        "trackIndex" : 1,
                        "medias" : [
                          {
                            "id" : 43,
                            "_type" : "Callout",
                            "def" : {
                              "kind" : "remix",
                              "shape" : "text",
                              "style" : "basic",
                              "height" : 450.000000000034,
                              "line-spacing" : 0.0,
                              "width" : 1271.42857142822,
                              "word-wrap" : 1.0,
                              "horizontal-alignment" : "center",
                              "resize-behavior" : "resizeText",
                              "text" : "Thank You",
                              "vertical-alignment" : "center",
                              "font" : {
                                "color-blue" : 1.0,
                                "color-green" : 1.0,
                                "color-red" : 1.0,
                                "size" : 96.0,
                                "tracking" : 0.0,
                                "name" : "Montserrat",
                                "weight" : "Regular"
                              },
                              "textAttributes" : {
                                "type" : "textAttributeList",
                                "keyframes" : [
                                  {
                                    "endTime" : 0,
                                    "time" : 0,
                                    "value" : [{"name":"fontSize","rangeEnd":9,"rangeStart":0,"value":100,"valueType":"double"},{"name":"underline","rangeEnd":9,"rangeStart":0,"value":0,"valueType":"int"},{"name":"kerning","rangeEnd":9,"rangeStart":0,"value":0,"valueType":"double"},{"name":"fontWeight","rangeEnd":9,"rangeStart":0,"value":400,"valueType":"int"},{"name":"strikethrough","rangeEnd":9,"rangeStart":0,"value":0,"valueType":"int"},{"name":"fontItalic","rangeEnd":9,"rangeStart":0,"value":0,"valueType":"int"},{"name":"fgColor","rangeEnd":9,"rangeStart":0,"value":"(0,174,141,255)","valueType":"color"},{"name":"fontName","rangeEnd":9,"rangeStart":0,"value":"Montserrat","valueType":"string"}],
                                    "duration" : 0
                                  }
                                ]
                              }
                            },
                            "attributes" : {
                              "autoRotateText" : true
                            },
                            "parameters" : {
                              "translation0" : 0.285714285962825,
                              "translation1" : 6.91215973347425e-11
                            },
                            "effects" : [

                            ],
                            "start" : 0,
                            "duration" : 124,
                            "mediaStart" : 0,
                            "mediaDuration" : 124,
                            "scalar" : 1,
                            "metadata" : {
                              "clipSpeedAttribute" : false,
                              "default-HAlign" : "center",
                              "default-LineSpace" : 0.0,
                              "default-VAlign" : "center",
                              "default-translation0" : -177.714285714172,
                              "default-translation1" : 5.00000000000001
                            },
                            "animationTracks" : {

                            }
                          }
                        ],
                          "ident" : "",
                          "audioMuted" : false,
                          "videoHidden" : false,
                          "magnetic" : false,
                          "metadata" : {
                            "IsLocked" : "False",
                            "WinTrackHeight" : "5.60588108649785e-313"
                          }
                      }
                    ],
                    "attributes" : {
                      "ident" : "Group 1",
                      "gain" : 1.0,
                      "mixToMono" : false
                    },
                    "effects" : [

                    ],
                    "start" : 10138,
                    "duration" : 124,
                    "mediaStart" : 0.0,
                    "mediaDuration" : 124.0,
                    "scalar" : 1,
                    "metadata" : {
                      "IsGroupExpanded" : "False",
                      "default-translation0" : -1.81898940354586e-12
                    },
                    "animationTracks" : {

                    }
                  }
                ],
                "transitions" : [
                  {
                    "name" : "Fade",
                    "duration" : 15,
                    "trivial" : false,
                    "reverse" : false,
                    "useAudioPreRoll" : true,
                    "useVisualPreRoll" : true,
                    "rightMedia" : 17
                  },
                  {
                    "name" : "Fade",
                    "duration" : 30,
                    "trivial" : false,
                    "reverse" : false,
                    "useAudioPreRoll" : true,
                    "useVisualPreRoll" : true,
                    "leftMedia" : 17
                  },
                  {
                    "name" : "Fade",
                    "duration" : 15,
                    "trivial" : false,
                    "reverse" : false,
                    "useAudioPreRoll" : true,
                    "useVisualPreRoll" : true,
                    "rightMedia" : 20
                  },
                  {
                    "name" : "Fade",
                    "duration" : 30,
                    "trivial" : false,
                    "reverse" : false,
                    "useAudioPreRoll" : true,
                    "useVisualPreRoll" : true,
                    "leftMedia" : 20
                  },
                  {
                    "name" : "Fade",
                    "duration" : 15,
                    "trivial" : false,
                    "reverse" : false,
                    "useAudioPreRoll" : true,
                    "useVisualPreRoll" : true,
                    "rightMedia" : 23
                  },
                  {
                    "name" : "Fade",
                    "duration" : 30,
                    "trivial" : false,
                    "reverse" : false,
                    "useAudioPreRoll" : true,
                    "useVisualPreRoll" : true,
                    "leftMedia" : 23
                  },
                  {
                    "name" : "Fade",
                    "duration" : 15,
                    "trivial" : false,
                    "reverse" : false,
                    "useAudioPreRoll" : true,
                    "useVisualPreRoll" : true,
                    "rightMedia" : 26
                  },
                  {
                    "name" : "Fade",
                    "duration" : 30,
                    "trivial" : false,
                    "reverse" : false,
                    "useAudioPreRoll" : true,
                    "useVisualPreRoll" : true,
                    "leftMedia" : 26
                  },
                  {
                    "name" : "Fade",
                    "duration" : 15,
                    "trivial" : false,
                    "reverse" : false,
                    "useAudioPreRoll" : true,
                    "useVisualPreRoll" : true,
                    "rightMedia" : 29
                  },
                  {
                    "name" : "Fade",
                    "duration" : 30,
                    "trivial" : false,
                    "reverse" : false,
                    "useAudioPreRoll" : true,
                    "useVisualPreRoll" : true,
                    "leftMedia" : 29
                  },
                  {
                    "name" : "Fade",
                    "duration" : 15,
                    "trivial" : false,
                    "reverse" : false,
                    "useAudioPreRoll" : true,
                    "useVisualPreRoll" : true,
                    "rightMedia" : 32
                  },
                  {
                    "name" : "Fade",
                    "duration" : 30,
                    "trivial" : false,
                    "reverse" : false,
                    "useAudioPreRoll" : true,
                    "useVisualPreRoll" : true,
                    "leftMedia" : 32
                  },
                  {
                    "name" : "Fade",
                    "duration" : 15,
                    "trivial" : false,
                    "reverse" : false,
                    "useAudioPreRoll" : true,
                    "useVisualPreRoll" : true,
                    "rightMedia" : 35
                  },
                  {
                    "name" : "Fade",
                    "duration" : 30,
                    "trivial" : false,
                    "reverse" : false,
                    "useAudioPreRoll" : true,
                    "useVisualPreRoll" : true,
                    "leftMedia" : 35
                  },
                  {
                    "name" : "Fade",
                    "duration" : 15,
                    "trivial" : false,
                    "reverse" : false,
                    "useAudioPreRoll" : true,
                    "useVisualPreRoll" : true,
                    "rightMedia" : 38
                  },
                  {
                    "name" : "Fade",
                    "duration" : 30,
                    "trivial" : false,
                    "reverse" : false,
                    "useAudioPreRoll" : true,
                    "useVisualPreRoll" : true,
                    "leftMedia" : 38
                  },
                  {
                    "name" : "Fade",
                    "duration" : 15,
                    "trivial" : false,
                    "reverse" : false,
                    "useAudioPreRoll" : true,
                    "useVisualPreRoll" : true,
                    "rightMedia" : 41
                  },
                  {
                    "name" : "Fade",
                    "duration" : 30,
                    "trivial" : false,
                    "reverse" : false,
                    "useAudioPreRoll" : true,
                    "useVisualPreRoll" : true,
                    "leftMedia" : 41
                  }
                ]
              },
              {
                "trackIndex" : 2,
                "medias" : [
                ]
              },
              {
                "trackIndex" : 3,
                "medias" : [
                ]
              },
              {
                "trackIndex" : 4,
                "medias" : [
                ]
              },
              {
                "trackIndex" : 5,
                "medias" : [
                ]
              }
            ]
          }
        }
      ]
    },
    "trackAttributes" : [
      {
        "ident" : "",
        "audioMuted" : false,
        "videoHidden" : false,
        "magnetic" : false,
        "metadata" : {
          "IsLocked" : "False",
          "WinTrackHeight" : "56"
        }
      },
      {
        "ident" : "",
        "audioMuted" : false,
        "videoHidden" : false,
        "magnetic" : false,
        "metadata" : {
          "IsLocked" : "False",
          "WinTrackHeight" : "56"
        }
      },
      {
        "ident" : "",
        "audioMuted" : false,
        "videoHidden" : false,
        "magnetic" : false,
        "metadata" : {
          "IsLocked" : "False",
          "WinTrackHeight" : "56"
        }
      },
      {
        "ident" : "",
        "audioMuted" : false,
        "videoHidden" : false,
        "magnetic" : false,
        "metadata" : {
          "IsLocked" : "False",
          "WinTrackHeight" : "56"
        }
      },
      {
        "ident" : "",
        "audioMuted" : false,
        "videoHidden" : false,
        "magnetic" : false,
        "metadata" : {
          "IsLocked" : "False",
          "WinTrackHeight" : "56"
        }
      },
      {
        "ident" : "",
        "audioMuted" : false,
        "videoHidden" : false,
        "magnetic" : false,
        "metadata" : {
          "IsLocked" : "False",
          "WinTrackHeight" : "56"
        }
      }
    ],
    "captionAttributes" : {
      "enabled" : true,
      "fontName" : "Arial",
      "fontSize" : 55,
      "backgroundColor" : [ 0, 0, 0, 191],
      "foregroundColor" : [ 255, 255, 255, 255],
      "lang" : "en",
      "alignment" : 0,
      "defaultFontSize" : true,
      "opacity" : 0.5,
      "backgroundEnabled" : true,
      "backgroundOnlyAroundText" : true
    },
    "backgroundColor" : [ 0, 0, 0, 255]
  },
  "metadata" : {
    "AutoSaveFile" : "C:\\Users\\Hasan\\AppData\\Local\\TechSmith\\Camtasia Studio\\19.0\\Auto-Saves\\Untitled Project16ef5372.autosave.tscproj",
    "CanvasZoom" : 56,
    "Date" : "2020-09-09 08:53:24 AM",
    "IsAutoSave" : "0",
    "Language" : "ENU",
    "ProfileName" : "MP4 only (up to 1080p)",
    "ProjectDimensionsChanged" : "1",
    "Title" : "kpi",
    "audioNarrationNotes" : "",
    "calloutStyle" : "Basic",
    "canvasDetached" : "False",
    "canvasPositionHeight" : "0",
    "canvasPositionLeft" : "0",
    "canvasPositionTop" : "0",
    "canvasPositionWidth" : "0"
  }
}
